<svg width="64" height="64" viewBox="0 0 64 64" fill="none" xmlns="http://www.w3.org/2000/svg">
  <!-- Background circle -->
  <rect width="64" height="64" rx="12" fill="#7C3AED"/>
  
  <!-- Wallet icon -->
  <g transform="translate(12, 14)">
    <!-- Wallet body -->
    <rect x="2" y="8" width="36" height="28" rx="4" fill="white" opacity="0.95"/>
    
    <!-- Wallet flap -->
    <path d="M 6 8 L 6 4 C 6 2.5 7 1 8.5 1 L 31.5 1 C 33 1 34 2.5 34 4 L 34 8" 
          fill="white" opacity="0.8"/>
    
    <!-- Card slot -->
    <rect x="6" y="14" width="28" height="2" rx="1" fill="#7C3AED" opacity="0.4"/>
    <rect x="6" y="19" width="20" height="2" rx="1" fill="#7C3AED" opacity="0.3"/>
    
    <!-- Dollar sign -->
    <g transform="translate(26, 22)">
      <path d="M 6 2 L 6 16" stroke="#7C3AED" stroke-width="2.5" stroke-linecap="round"/>
      <path d="M 3 5 C 3 5 3 3 6 3 C 9 3 9 5 9 5 C 9 7 6 7 6 7 C 3 7 3 9 3 11 C 3 11 3 13 6 13 C 9 13 9 11 9 11" 
            stroke="#7C3AED" stroke-width="2.5" stroke-linecap="round" stroke-linejoin="round" fill="none"/>
    </g>
  </g>
</svg>
